<svg id="cec8062e-0385-402c-95a5-35a6dd2b2a4c" data-name="16" xmlns="http://www.w3.org/2000/svg" viewBox="0 0 105 105"><defs><style>.\33 e770aa2-b7b6-4dc0-afda-33e39d639112,.\34 f0cf7d1-43e6-48b7-bf22-9fe6ef379faa{fill:#a2a2a2;}.\34 f0cf7d1-43e6-48b7-bf22-9fe6ef379faa{stroke:#a2a2a2;stroke-miterlimit:10;}.\33 e770aa2-b7b6-4dc0-afda-33e39d639112{fill-rule:evenodd;}</style></defs><title>facebook</title><path class="4f0cf7d1-43e6-48b7-bf22-9fe6ef379faa" d="M52.65,3.89a49.52,49.52,0,1,1-35,14.5,49.33,49.33,0,0,1,35-14.5ZM85,21.13A45.71,45.71,0,1,0,98.31,53.41,45.62,45.62,0,0,0,85,21.13Z"/><path class="3e770aa2-b7b6-4dc0-afda-33e39d639112" d="M56.44,43.29V39.23a2.13,2.13,0,0,1,2.22-2.41h5.68V28.15H56.52c-8.69,0-10.64,6.42-10.64,10.58v4.55h-5V53.41h5.1V78.69H56.05V53.41h7.48l.33-4,.6-6.14Z"/></svg>