<svg width="30" height="30" viewBox="0 0 30 30" fill="none" xmlns="http://www.w3.org/2000/svg">
<path d="M14.9964 1.37325e-05C18.467 -0.000817221 21.8304 1.20182 24.5136 3.403C27.1968 5.60417 29.0337 8.66767 29.7113 12.0714C30.3889 15.4752 29.8652 19.0086 28.2295 22.0695C26.5939 25.1305 23.9474 27.5295 20.7411 28.8578C17.5348 30.1862 13.9671 30.3616 10.646 29.3542C7.32485 28.3468 4.4558 26.2189 2.52775 23.3332C0.599691 20.4475 -0.268064 16.9825 0.0723581 13.5287C0.41278 10.0749 1.94031 6.84594 4.39465 4.39218C5.78516 2.99754 7.43765 1.89155 9.25708 1.13778C11.0765 0.38401 13.027 -0.00265615 14.9964 1.37325e-05V1.37325e-05ZM24.7955 5.22214C22.5352 2.95089 19.5571 1.53391 16.369 1.21276C13.1808 0.891614 9.97996 1.68619 7.31211 3.46103C4.64426 5.23586 2.67458 7.88108 1.73887 10.9457C0.803163 14.0103 0.959353 17.3046 2.18082 20.267C3.40228 23.2293 5.61339 25.6763 8.43719 27.1908C11.261 28.7052 14.5227 29.1934 17.6661 28.5721C20.8096 27.9507 23.6402 26.2583 25.6755 23.7834C27.7108 21.3085 28.8246 18.2043 28.8272 15C28.8301 13.1853 28.4756 11.3878 27.7838 9.71009C27.092 8.0324 26.0766 6.50739 24.7955 5.22214V5.22214Z" fill="#A2A2A2"/>
<path d="M16.6405 11.7423V10.5125C16.6279 10.4186 16.6362 10.323 16.6647 10.2327C16.6932 10.1423 16.7412 10.0594 16.8054 9.98968C16.8696 9.91999 16.9484 9.8653 17.0361 9.82949C17.1238 9.79367 17.2183 9.77762 17.3129 9.78246H19.0335V7.15625H16.6647C14.0325 7.15625 13.4418 9.10092 13.4418 10.361V11.7392H11.9272V14.8077H13.4721V22.4652H16.5224V14.8077H18.7881L18.8881 13.5961L19.0698 11.7362L16.6405 11.7423Z" fill="#A2A2A2"/>
</svg>
