<svg width="30" height="30" viewBox="0 0 30 30" fill="none" xmlns="http://www.w3.org/2000/svg">
<path d="M14.9964 1.20804e-05C18.467 -0.000818874 21.8304 1.20182 24.5136 3.403C27.1968 5.60417 29.0337 8.66767 29.7113 12.0714C30.3889 15.4752 29.8652 19.0086 28.2295 22.0695C26.5939 25.1305 23.9474 27.5295 20.7411 28.8578C17.5348 30.1862 13.9671 30.3616 10.646 29.3542C7.32485 28.3468 4.4558 26.2189 2.52775 23.3332C0.599691 20.4475 -0.268064 16.9825 0.0723581 13.5287C0.41278 10.0749 1.94031 6.84594 4.39465 4.39217C5.78526 2.99768 7.43776 1.89177 9.25718 1.13801C11.0766 0.38425 13.027 -0.00249178 14.9964 1.20804e-05V1.20804e-05ZM24.7712 5.21608C22.5099 2.95768 19.5355 1.55314 16.3547 1.24172C13.174 0.930309 9.98364 1.73128 7.3272 3.5082C4.67075 5.28512 2.71252 7.92806 1.7861 10.9868C0.859669 14.0455 1.02235 17.3309 2.24643 20.2831C3.47051 23.2354 5.68027 25.6719 8.49926 27.1777C11.3183 28.6835 14.5721 29.1653 17.7065 28.5412C20.841 27.9171 23.662 26.2256 25.6892 23.7548C27.7164 21.284 28.8243 18.1869 28.8241 14.9909C28.8277 13.1747 28.4714 11.3757 27.7757 9.69798C27.0801 8.02023 26.0589 6.49694 24.7712 5.21608V5.21608Z" fill="#A2A2A2"/>
<path d="M24.75 7.46623C24.0463 7.84419 23.3037 8.09695 22.5439 8.21713C23.3453 7.63708 23.9493 6.71052 24.242 5.61215C23.4827 6.16606 22.6542 6.55623 21.7912 6.76632C21.2636 6.06681 20.581 5.58008 19.8308 5.36845C19.0805 5.15683 18.2969 5.22993 17.5801 5.57841C16.8633 5.92689 16.246 6.53488 15.8073 7.32454C15.3685 8.1142 15.1283 9.04959 15.1173 10.011C15.1225 10.375 15.1598 10.7372 15.2285 11.091C13.7043 10.9997 12.2123 10.51 10.8488 9.65333C9.48527 8.79665 8.28061 7.59209 7.31254 6.11739C6.81643 7.15636 6.66209 8.39543 6.882 9.5738C7.10192 10.7522 7.67893 11.7779 8.4916 12.4352C7.88237 12.4221 7.28512 12.2215 6.75267 11.8511V11.916C6.75099 12.4991 6.84041 13.0769 7.01592 13.6171C7.2538 14.361 7.63704 15.0185 8.13059 15.5294C8.62415 16.0403 9.21227 16.3885 9.84121 16.542C9.51055 16.6581 9.16876 16.7174 8.82529 16.7181C8.58208 16.7162 8.33972 16.682 8.10228 16.6161C8.35603 17.5616 8.8368 18.3862 9.47908 18.9776C10.1214 19.569 10.8939 19.8985 11.6914 19.921C10.3249 21.2362 8.64777 21.947 6.92323 21.942C6.60807 21.942 6.31516 21.9142 6 21.8771C7.76656 23.263 9.80969 23.9987 11.8953 24C17.9018 24 21.6133 18.8039 22.581 13.3993C22.7544 12.4613 22.8439 11.5021 22.8479 10.5394V9.92752C23.591 9.2507 24.2345 8.41793 24.75 7.46623Z" fill="#A2A2A2"/>
</svg>
