<svg width="30" height="30" viewBox="0 0 30 30" fill="none" xmlns="http://www.w3.org/2000/svg">
<path d="M14.9964 1.20804e-05C18.467 -0.000818874 21.8304 1.20182 24.5136 3.403C27.1968 5.60417 29.0337 8.66767 29.7113 12.0714C30.3889 15.4752 29.8652 19.0086 28.2295 22.0695C26.5939 25.1305 23.9474 27.5295 20.7411 28.8578C17.5348 30.1862 13.9671 30.3616 10.646 29.3542C7.32485 28.3468 4.4558 26.2189 2.52775 23.3332C0.599691 20.4475 -0.268064 16.9825 0.0723581 13.5287C0.41278 10.0749 1.94031 6.84594 4.39465 4.39217C5.78526 2.99768 7.43776 1.89177 9.25718 1.13801C11.0766 0.38425 13.027 -0.00249178 14.9964 1.20804e-05V1.20804e-05ZM24.7712 5.21608C22.5099 2.95768 19.5355 1.55314 16.3547 1.24172C13.174 0.930309 9.98364 1.73128 7.3272 3.5082C4.67075 5.28512 2.71252 7.92806 1.7861 10.9868C0.859669 14.0455 1.02235 17.3309 2.24643 20.2831C3.47051 23.2354 5.68027 25.6719 8.49926 27.1777C11.3183 28.6835 14.5721 29.1653 17.7065 28.5412C20.841 27.9171 23.662 26.2256 25.6892 23.7548C27.7164 21.284 28.8243 18.1869 28.8241 14.9909C28.8277 13.1747 28.4714 11.3757 27.7757 9.69798C27.0801 8.02023 26.0589 6.49694 24.7712 5.21608V5.21608Z" fill="#A2A2A2"/>
<path fill-rule="evenodd" clip-rule="evenodd" d="M6 14.8226V24H10.3718V11.4594H6V14.8226ZM24.6492 15.3397C24.3597 12.9476 23.2773 11.4594 20.0803 11.4594C18.2049 11.4594 16.9378 12.153 16.4092 13.141H16.3504V11.4594H12.8681V23.9874H16.5141V17.7864C16.5141 16.1511 16.8371 14.5703 18.8384 14.5703C20.8397 14.5703 20.9991 16.4369 20.9991 17.8999V23.9958H24.7499V17.118C24.7518 16.5166 24.7168 15.9157 24.645 15.3187L24.6492 15.3397ZM8.18588 5.25C7.75356 5.25 7.33094 5.37846 6.97147 5.61913C6.61201 5.85981 6.33184 6.20189 6.16639 6.60211C6.00095 7.00234 5.95766 7.44273 6.042 7.86761C6.12634 8.29249 6.33453 8.68276 6.64023 8.98908C6.94593 9.2954 7.33542 9.50401 7.75944 9.58852C8.18346 9.67303 8.62297 9.62966 9.02239 9.46388C9.4218 9.2981 9.76319 9.01736 10.0034 8.65717C10.2436 8.29698 10.3718 7.8735 10.3718 7.4403C10.3718 6.8594 10.1415 6.30229 9.73154 5.89153C9.3216 5.48076 8.76562 5.25 8.18588 5.25Z" fill="#A2A2A2"/>
</svg>
