<svg width="589" height="589" xmlns="http://www.w3.org/2000/svg" xmlns:xlink="http://www.w3.org/1999/xlink" overflow="hidden"><defs><clipPath id="clip0"><rect x="0" y="0" width="589" height="589"/></clipPath><radialGradient cx="-200.997" cy="188.218" r="352.147" gradientUnits="userSpaceOnUse" spreadMethod="pad" id="fill1" gradientTransform="matrix(0 -1.29711 -1.20673 0 413.58 299.726)"><stop offset="0" stop-color="#FFDD55"/><stop offset="0.1" stop-color="#FFDD55"/><stop offset="0.5" stop-color="#FF543E"/><stop offset="1" stop-color="#C837AB"/></radialGradient><radialGradient cx="300.501" cy="420.053" r="352.147" gradientUnits="userSpaceOnUse" spreadMethod="pad" id="fill2" gradientTransform="matrix(0.113808 0.568516 2.34409 -0.469368 -1032.07 123.571)"><stop offset="0" stop-color="#3771C8"/><stop offset="0.128" stop-color="#3771C8"/><stop offset="1" stop-color="#6600FF" stop-opacity="0"/></radialGradient></defs><g clip-path="url(#clip0)"><path d="M294.565 64.0701C198.362 64.0701 170.156 64.201 164.724 64.5937 144.959 66.2298 132.656 69.3711 119.305 75.981 108.965 81.0857 100.85 87.0411 92.8002 95.3526 78.2061 110.536 69.3057 129.187 66.0989 151.438 64.5282 162.237 64.0701 164.396 64.0047 219.501 63.9392 237.825 64.0047 261.974 64.0047 294.369 64.0047 390.507 64.1356 418.648 64.5937 424.08 66.1643 443.321 69.1748 455.362 75.5883 468.582 87.761 493.909 111.059 512.888 138.546 520.022 148.035 522.443 158.572 523.817 171.988 524.472 177.682 524.734 235.862 524.93 294.107 524.93 352.353 524.93 410.533 524.864 416.096 524.603 431.672 523.883 440.768 522.639 450.781 520.087 478.399 512.954 501.239 494.236 513.739 468.582 520.022 455.69 523.163 443.124 524.603 424.931 524.93 420.939 525.061 357.654 525.061 294.435 525.061 231.215 524.93 167.996 524.603 164.004 523.163 145.483 519.956 133.049 513.543 119.894 508.242 109.096 502.352 101.112 493.844 92.8657 478.595 78.2716 459.944 69.4366 437.692 66.2298 426.894 64.6591 424.8 64.201 369.696 64.1356L294.565 64.1356Z" fill="url(#fill1)"/><path d="M294.565 64.0701C198.362 64.0701 170.156 64.201 164.724 64.5937 144.959 66.2298 132.656 69.3711 119.305 75.981 108.965 81.0857 100.85 87.0411 92.8002 95.3526 78.2061 110.536 69.3057 129.187 66.0989 151.438 64.5282 162.237 64.0701 164.396 64.0047 219.501 63.9392 237.825 64.0047 261.974 64.0047 294.369 64.0047 390.507 64.1356 418.648 64.5937 424.08 66.1643 443.321 69.1748 455.362 75.5883 468.582 87.761 493.909 111.059 512.888 138.546 520.022 148.035 522.443 158.572 523.817 171.988 524.472 177.682 524.734 235.862 524.93 294.107 524.93 352.353 524.93 410.533 524.864 416.096 524.603 431.672 523.883 440.768 522.639 450.781 520.087 478.399 512.954 501.239 494.236 513.739 468.582 520.022 455.69 523.163 443.124 524.603 424.931 524.93 420.939 525.061 357.654 525.061 294.435 525.061 231.215 524.93 167.996 524.603 164.004 523.163 145.483 519.956 133.049 513.543 119.894 508.242 109.096 502.352 101.112 493.844 92.8657 478.595 78.2716 459.944 69.4366 437.692 66.2298 426.894 64.6591 424.8 64.201 369.696 64.1356L294.565 64.1356Z" fill="url(#fill2)"/><path d="M294.5 124.344C248.296 124.344 242.472 124.541 224.344 125.392 206.215 126.242 193.846 129.122 183.048 133.31 171.857 137.63 162.368 143.454 152.878 152.944 143.389 162.433 137.564 171.923 133.245 183.114 129.056 193.912 126.177 206.281 125.326 224.409 124.541 242.537 124.279 248.362 124.279 294.565 124.279 340.769 124.475 346.594 125.326 364.722 126.177 382.85 129.056 395.219 133.245 406.017 137.564 417.208 143.389 426.698 152.878 436.187 162.302 445.677 171.857 451.501 182.983 455.821 193.781 460.009 206.15 462.889 224.278 463.739 242.406 464.59 248.231 464.786 294.435 464.786 340.638 464.786 346.463 464.59 364.591 463.739 382.719 462.889 395.088 460.009 405.886 455.821 417.077 451.501 426.567 445.677 435.991 436.187 445.48 426.698 451.305 417.208 455.624 406.017 459.813 395.219 462.692 382.85 463.543 364.722 464.328 346.594 464.59 340.769 464.59 294.565 464.59 248.362 464.394 242.537 463.543 224.409 462.692 206.281 459.813 193.912 455.624 183.114 451.239 171.923 445.48 162.433 435.991 152.944 426.501 143.454 417.077 137.63 405.886 133.31 395.023 129.122 382.654 126.242 364.526 125.392 346.397 124.541 340.638 124.344 294.5 124.344L294.5 124.344ZM279.186 154.972C283.702 154.972 288.741 154.972 294.435 154.972 339.853 154.972 345.285 155.103 363.217 155.954 379.84 156.739 388.805 159.488 394.826 161.844 402.745 164.92 408.439 168.585 414.394 174.54 420.35 180.496 424.015 186.189 427.156 194.108 429.512 200.129 432.261 209.095 433.046 225.718 433.831 243.65 434.028 249.016 434.028 294.435 434.028 339.853 433.831 345.219 433.046 363.151 432.261 379.774 429.512 388.74 427.156 394.761 424.08 402.68 420.35 408.373 414.394 414.329 408.439 420.284 402.811 423.949 394.826 427.025 388.805 429.381 379.84 432.13 363.217 432.915 345.285 433.7 339.918 433.897 294.435 433.897 249.016 433.897 243.584 433.7 225.652 432.915 209.03 432.13 200.064 429.381 194.043 427.025 186.124 423.949 180.43 420.284 174.475 414.329 168.519 408.373 164.855 402.745 161.713 394.761 159.357 388.74 156.609 379.774 155.823 363.151 155.038 345.219 154.842 339.853 154.842 294.369 154.842 248.885 154.972 243.584 155.823 225.652 156.609 209.03 159.357 200.064 161.713 194.043 164.789 186.124 168.519 180.43 174.475 174.475 180.43 168.519 186.124 164.855 194.043 161.713 200.064 159.357 209.03 156.609 225.652 155.823 241.425 155.234 247.511 154.972 279.186 154.972L279.186 154.972ZM385.337 183.244C374.08 183.244 364.918 192.407 364.918 203.663 364.918 214.92 374.08 224.082 385.337 224.082 396.593 224.082 405.756 214.92 405.756 203.663 405.756 192.407 396.593 183.244 385.337 183.244L385.337 183.244ZM294.5 207.132C246.202 207.132 207.132 246.267 207.132 294.5 207.132 342.733 246.202 381.868 294.5 381.868 342.798 381.868 381.868 342.733 381.868 294.5 381.868 246.267 342.733 207.132 294.5 207.132L294.5 207.132ZM294.5 237.76C325.848 237.76 351.24 263.152 351.24 294.5 351.24 325.848 325.848 351.24 294.5 351.24 263.152 351.24 237.76 325.848 237.76 294.5 237.76 263.218 263.152 237.76 294.5 237.76Z" fill="#FFFFFF"/></g></svg>