<svg id="c65055f1-2fa4-4d22-9890-a0157ea34bde" data-name="16" xmlns="http://www.w3.org/2000/svg" viewBox="0 0 105 105"><defs><style>.\31 1aa84f3-f7e5-48bd-9357-b9115bfa4b02,.ab1019f2-ed8d-4078-85c0-5a98b726035b{fill:#a2a2a2;}.\31 1aa84f3-f7e5-48bd-9357-b9115bfa4b02{stroke:#a2a2a2;stroke-miterlimit:10;}.ab1019f2-ed8d-4078-85c0-5a98b726035b{fill-rule:evenodd;}</style></defs><title>linkedin</title><path class="11aa84f3-f7e5-48bd-9357-b9115bfa4b02" d="M52.85,4a49.52,49.52,0,1,1-35,14.5A49.34,49.34,0,0,1,52.85,4ZM85.12,21.22A45.61,45.61,0,1,0,98.5,53.49,45.39,45.39,0,0,0,85.12,21.22Z"/><path class="ab1019f2-ed8d-4078-85c0-5a98b726035b" d="M30.5,54V75.83H40.92V46H30.5Zm44.45,1.23C74.26,49.54,71.68,46,64.06,46c-4.47,0-7.49,1.65-8.75,4h-.14V46H46.87v29.8h8.69V61.05c0-3.89.77-7.65,5.54-7.65s5.15,4.44,5.15,7.92v14.5h8.94V59.46a34.87,34.87,0,0,0-.25-4.28Zm-39.24-24a5.21,5.21,0,1,0,5.21,5.21,5.21,5.21,0,0,0-5.21-5.21Z"/></svg>