<svg width="294" height="79" viewBox="0 0 294 79" fill="none" xmlns="http://www.w3.org/2000/svg">
<g clip-path="url(#clip0_42_58)">
<rect width="294" height="79" fill="white"/>
<path d="M81.9127 39.8565C81.7265 33.9052 80.101 31.164 73.6616 18.7514C69.5695 10.8663 54.4918 -1.07927 34.9606 0.0782359C19.7399 0.980249 5.75378 14.9463 2.32032 21.4506C0.146316 25.5686 -1.28559 33.9783 1.69013 40.7459C3.50089 44.861 6.84903 47.1565 11.3759 47.3857C12.1749 47.4256 16.7678 47.4851 17.465 47.8918C17.5255 48.0653 18.3667 54.5267 21.1002 58.2986C23.8815 62.1367 28.5707 63.2855 30.431 63.2855C33.0637 63.2855 35.4587 62.4449 37.1383 61.4853C40.2094 64.3562 50.6823 76.7259 51.8188 78.1935C52.205 78.7055 52.7911 79 53.4277 79C53.4277 79 53.4277 79 53.4287 79C53.8946 78.999 54.9853 78.999 58.5013 75.6474C59.1104 75.0662 59.2847 74.1281 58.9288 73.3461C57.7693 70.8 56.508 67.8063 55.8393 65.9564C56.0237 65.973 65.2141 67.3616 68.8641 62.244C70.4235 60.0577 77.5069 54.6534 78.5122 53.5281C80.9651 50.7762 82.1099 46.1765 81.9127 39.8565ZM65.8416 59.419C63.3208 63.2601 55.0266 60.5375 52.3132 62.285C51.2941 62.9412 50.8767 64.442 55.011 73.6874C54.5716 74.0696 54.1478 74.4158 53.8002 74.6781C52.4123 73.0087 40.5699 58.6828 39.3692 57.7096C45.5701 54.4467 59.1948 52.6963 66.2544 54.3804C67.6734 54.7197 68.71 55.2034 69.2723 55.77C68.0403 56.7832 66.8075 57.9465 65.8416 59.419ZM55.1798 44.8132C54.7376 44.8132 54.3771 44.43 54.3771 43.96C54.3771 43.4899 54.7376 43.1067 55.1798 43.1067C55.6219 43.1067 55.9824 43.4899 55.9824 43.96C55.9824 44.43 55.6219 44.8132 55.1798 44.8132ZM75.8484 50.8435C75.1558 51.6197 71.4233 54.1444 70.7675 54.6183C69.9667 53.6607 68.5944 52.9401 66.6552 52.4769C63.8033 51.7953 59.9332 51.4871 55.8668 51.7924V46.1472C56.73 45.8391 57.3575 44.9809 57.3575 43.9609C57.3575 42.6835 56.3805 41.6449 55.1789 41.6449C53.9772 41.6449 53.0012 42.6825 53.0012 43.96C53.0012 44.98 53.6286 45.8381 54.4918 46.1462V47.7387H48.1606C47.8707 46.821 47.0635 46.154 46.104 46.154C44.9023 46.154 43.9254 47.1926 43.9254 48.47C43.9254 49.7475 44.9023 50.786 46.104 50.786C47.0635 50.786 47.8707 50.119 48.1606 49.2014H54.4918V51.883C42.1468 52.2751 32.4738 59.3839 30.431 59.3839C25.9133 59.3839 22.811 55.8373 21.4616 49.1282C21.435 48.9956 21.4084 48.8308 21.3791 48.6485C21.1699 47.37 20.9846 45.3924 19.9408 44.5285C18.3557 43.2169 12.3033 43.526 11.5502 43.488C8.38368 43.3281 6.24545 41.8907 5.01535 39.093C2.6533 33.7219 4.49983 26.2239 5.88128 23.6866C6.51055 22.532 8.5121 19.4584 11.308 17.3237V27.87H7.93879C7.55902 27.87 7.25081 28.1976 7.25081 28.6014V34.3986C6.38763 34.7068 5.7602 35.5649 5.7602 36.5849C5.7602 37.8623 6.73712 38.9009 7.93879 38.9009C9.14045 38.9009 10.1174 37.8623 10.1174 36.5849C10.1174 35.5649 9.48994 34.7068 8.62676 34.3986V29.3327H11.308V31.8925C11.308 32.2962 11.6162 32.6238 11.996 32.6238H17.0549V37.7024C16.1917 38.0106 15.5643 38.8687 15.5643 39.8887C15.5643 41.1662 16.5412 42.2047 17.7429 42.2047C18.9446 42.2047 19.9215 41.1662 19.9215 39.8887C19.9215 38.8687 19.2941 38.0106 18.4309 37.7024V32.6238H23.8778C24.2576 32.6238 24.5658 32.2962 24.5658 31.8925V29.3327H27.7185V39.0842H26.6609C26.371 38.1666 25.5638 37.4996 24.6043 37.4996C23.4026 37.4996 22.4257 38.5381 22.4257 39.8156C22.4257 41.093 23.4026 42.1315 24.6043 42.1315C25.5638 42.1315 26.371 41.4645 26.6609 40.5469H29.8971V47.2511H26.9251C26.6343 46.3335 25.8271 45.6665 24.8676 45.6665C23.6659 45.6665 22.689 46.705 22.689 47.9824C22.689 49.2599 23.6659 50.2984 24.8676 50.2984C25.8271 50.2984 26.6343 49.6314 26.9242 48.7138H29.8962V52.4301C29.033 52.7382 28.4056 53.5964 28.4056 54.6164C28.4056 55.8938 29.3825 56.9324 30.5842 56.9324C31.7859 56.9324 32.7628 55.8938 32.7628 54.6164C32.7628 53.5964 32.1353 52.7382 31.2722 52.4301V45.6665H35.8211V50.4281C34.9579 50.7363 34.3305 51.5944 34.3305 52.6144C34.3305 53.8918 35.3074 54.9304 36.509 54.9304C37.7107 54.9304 38.6876 53.8918 38.6876 52.6144C38.6876 51.5944 38.0602 50.7363 37.197 50.4281V45.6665H38.5042C38.794 46.5841 39.6013 47.2511 40.5608 47.2511C41.7624 47.2511 42.7393 46.2125 42.7393 44.9351C42.7393 43.6577 41.7624 42.6191 40.5608 42.6191C39.6013 42.6191 38.794 43.2861 38.5042 44.2037H31.2722V39.8156C31.2722 39.4119 30.964 39.0842 30.5842 39.0842H29.0936V29.3327H33.5673L37.1475 33.1387L34.946 35.4791C34.6643 35.3377 34.3543 35.2528 34.0232 35.2528C32.8215 35.2528 31.8446 36.2914 31.8446 37.5688C31.8446 38.8463 32.8215 39.8848 34.0232 39.8848C35.2248 39.8848 36.2017 38.8463 36.2017 37.5688C36.2017 37.1778 36.1018 36.8141 35.9394 36.4903L38.1198 34.1724L43.3347 39.7161C43.1897 40.0252 43.1017 40.3695 43.1017 40.7371C43.1017 42.0145 44.0786 43.0531 45.2803 43.0531C46.4819 43.0531 47.4589 42.0145 47.4589 40.7371C47.4589 39.4596 46.4819 38.4211 45.2803 38.4211C44.928 38.4211 44.5996 38.5186 44.3043 38.6776L34.3387 28.0845C34.2094 27.947 34.0351 27.87 33.8525 27.87H24.5649V24.9445H35.1725L43.1118 33.3845C43.2457 33.5268 43.4218 33.599 43.5979 33.599C43.7741 33.599 43.9502 33.5278 44.0841 33.3845L45.8499 31.5073C46.0563 31.5765 46.2719 31.6243 46.4994 31.6243C47.701 31.6243 48.678 30.5858 48.678 29.3083C48.678 28.0309 47.701 26.9924 46.4994 26.9924C45.2977 26.9924 44.3208 28.0309 44.3208 29.3083C44.3208 29.8037 44.4712 30.2611 44.7216 30.6384L43.5979 31.833L36.1449 23.9099V21.6456C37.0081 21.3375 37.6355 20.4793 37.6355 19.4593C37.6355 18.1819 36.6586 17.1433 35.4569 17.1433C34.2552 17.1433 33.2792 18.1819 33.2792 19.4593C33.2792 20.4793 33.9067 21.3375 34.7698 21.6456V23.4818H24.5649V20.1907H31.1006C31.4804 20.1907 31.7886 19.863 31.7886 19.4593V14.7591H41.4203V21.1814C40.5571 21.4896 39.9297 22.3477 39.9297 23.3677C39.9297 24.6452 40.9066 25.6837 42.1082 25.6837C43.3099 25.6837 44.2868 24.6452 44.2868 23.3677C44.2868 22.3477 43.6594 21.4896 42.7962 21.1814V19.0936H49.7906C49.7925 19.0936 49.7943 19.0927 49.7961 19.0927C50.086 20.0103 50.8932 20.6783 51.8527 20.6783C53.0544 20.6783 54.0313 19.6397 54.0313 18.3623C54.0313 17.0848 53.0544 16.0463 51.8527 16.0463C50.8932 16.0463 50.0851 16.7143 49.7961 17.6319C49.7943 17.6319 49.7925 17.6309 49.7906 17.6309H42.7962V14.0277C42.7962 13.624 42.488 13.2964 42.1082 13.2964H31.7886V12.3729C32.6518 12.0648 33.2792 11.2066 33.2792 10.1866C33.2792 8.90919 32.3023 7.87065 31.1006 7.87065C29.899 7.87065 28.922 8.90919 28.922 10.1866C28.922 11.2066 29.5495 12.0648 30.4127 12.3729V18.7289H28.3487V15.864C28.3487 15.4602 28.0405 15.1326 27.6608 15.1326H21.003C20.7131 14.215 19.9059 13.548 18.9464 13.548C17.7447 13.548 16.7678 14.5865 16.7678 15.864C16.7678 17.1414 17.7447 18.1799 18.9464 18.1799C19.9059 18.1799 20.7131 17.5129 21.003 16.5953H26.9728V18.7289H23.8769C23.4971 18.7289 23.1889 19.0566 23.1889 19.4603V31.1621H12.684V23.9694H16.2789C16.5302 24.9533 17.3696 25.6837 18.3731 25.6837C19.5747 25.6837 20.5517 24.6452 20.5517 23.3677C20.5517 22.0903 19.5747 21.0517 18.3731 21.0517C17.4585 21.0517 16.677 21.6554 16.3541 22.5067H12.684V15.9829C15.3983 13.4241 25.4702 5.09148 35.9743 4.22262C47.6286 3.25917 59.8021 10.0014 62.8163 12.1457H48.9605C48.6477 11.2729 47.8588 10.6489 46.9296 10.6489C45.7279 10.6489 44.751 11.6874 44.751 12.9648C44.751 14.2423 45.7279 15.2808 46.9296 15.2808C47.9193 15.2808 48.7477 14.5709 49.0119 13.6084H57.5877V18.0122C56.7245 18.3204 56.0971 19.1785 56.0971 20.1985C56.0971 21.4759 57.074 22.5145 58.2757 22.5145C59.4773 22.5145 60.4543 21.4759 60.4543 20.1985C60.4543 19.1785 59.8268 18.3204 58.9637 18.0122V13.6084H64.6959C66.8928 15.4856 68.8879 17.8006 70.4941 20.7212C76.0768 30.8725 77.6858 34.0905 78.1178 38.0798H71.8059V35.3679C72.669 35.0598 73.2965 34.2016 73.2965 33.1816C73.2965 31.9042 72.3196 30.8656 71.1179 30.8656C69.9162 30.8656 68.9393 31.9042 68.9393 33.1816C68.9393 34.2016 69.5667 35.0598 70.4299 35.3679V40.7907H65.7095C65.7141 40.7556 65.7287 40.7234 65.7287 40.6874V22.377C66.5919 22.0688 67.2194 21.2107 67.2194 20.1907C67.2194 18.9132 66.2424 17.8747 65.0408 17.8747C63.8391 17.8747 62.8622 18.9132 62.8622 20.1907C62.8622 21.2107 63.4896 22.0688 64.3528 22.377V29.5765H57.2997L54.1304 26.2074C54.2817 25.8924 54.3753 25.5404 54.3753 25.163C54.3753 23.8855 53.3984 22.847 52.1967 22.847C50.9951 22.847 50.0181 23.8855 50.0181 25.163C50.0181 26.4404 50.9951 27.479 52.1967 27.479C52.5407 27.479 52.8618 27.3863 53.1516 27.2352L55.3541 29.5765H53.9332C53.702 29.5765 53.4864 29.6994 53.3589 29.9051L51.5739 32.7779C51.4996 32.8969 51.4601 33.0373 51.4601 33.1807V36.5244C51.4601 36.5576 51.4739 36.5869 51.4785 36.619C50.6061 36.9213 49.9695 37.7843 49.9695 38.8112C49.9695 40.0886 50.9464 41.1271 52.1481 41.1271C53.3498 41.1271 54.3267 40.0886 54.3267 38.8112C54.3267 37.7843 53.6901 36.9213 52.8177 36.619C52.8214 36.5869 52.8361 36.5586 52.8361 36.5244V33.401L54.3038 31.0392H58.7352V34.5819C57.8721 34.8901 57.2446 35.7482 57.2446 36.7682C57.2446 38.0457 58.2216 39.0842 59.4232 39.0842C60.6249 39.0842 61.6018 38.0457 61.6018 36.7682C61.6018 35.7482 60.9744 34.8901 60.1112 34.5819V31.0392H64.3537V40.6874C64.3537 40.7244 64.3684 40.7556 64.373 40.7907H62.2898C61.91 40.7907 61.6018 41.1184 61.6018 41.5221V45.0999C60.7386 45.408 60.1112 46.2662 60.1112 47.2862C60.1112 48.5636 61.0881 49.6022 62.2898 49.6022C63.4914 49.6022 64.4684 48.5636 64.4684 47.2862C64.4684 46.2662 63.8409 45.408 62.9778 45.0999V42.2534H70.4299V45.7094C69.5667 46.0175 68.9393 46.8756 68.9393 47.8957C68.9393 49.1731 69.9162 50.2116 71.1179 50.2116C72.3196 50.2116 73.2965 49.1731 73.2965 47.8957C73.2965 46.8756 72.669 46.0175 71.8059 45.7094V39.5425H78.2242C78.2306 39.6908 78.2398 39.8341 78.2444 39.9862C78.4068 45.1516 77.5784 48.9049 75.8484 50.8435ZM46.9057 48.47C46.9057 48.94 46.5452 49.3233 46.1031 49.3233C45.661 49.3233 45.3005 48.94 45.3005 48.47C45.3005 48 45.661 47.6168 46.1031 47.6168C46.5452 47.6168 46.9057 48 46.9057 48.47ZM7.93879 35.7326C8.38093 35.7326 8.74142 36.1159 8.74142 36.5859C8.74142 37.0559 8.38093 37.4391 7.93879 37.4391C7.49665 37.4391 7.13615 37.0559 7.13615 36.5859C7.13615 36.1159 7.49665 35.7326 7.93879 35.7326ZM17.742 39.0355C18.1841 39.0355 18.5446 39.4187 18.5446 39.8887C18.5446 40.3587 18.1841 40.742 17.742 40.742C17.2998 40.742 16.9393 40.3587 16.9393 39.8887C16.9393 39.4187 17.2998 39.0355 17.742 39.0355ZM25.406 39.8156C25.406 40.2856 25.0455 40.6688 24.6034 40.6688C24.1613 40.6688 23.8008 40.2856 23.8008 39.8156C23.8008 39.3455 24.1613 38.9623 24.6034 38.9623C25.0455 38.9623 25.406 39.3455 25.406 39.8156ZM30.5842 53.7631C31.0263 53.7631 31.3868 54.1464 31.3868 54.6164C31.3868 55.0864 31.0263 55.4696 30.5842 55.4696C30.1421 55.4696 29.7816 55.0864 29.7816 54.6164C29.7816 54.1464 30.1421 53.7631 30.5842 53.7631ZM25.6702 47.9824C25.6702 48.4525 25.3097 48.8357 24.8676 48.8357C24.4254 48.8357 24.0649 48.4525 24.0649 47.9824C24.0649 47.5124 24.4254 47.1292 24.8676 47.1292C25.3097 47.1292 25.6702 47.5124 25.6702 47.9824ZM36.509 51.7611C36.9512 51.7611 37.3117 52.1444 37.3117 52.6144C37.3117 53.0844 36.9521 53.4677 36.509 53.4677C36.066 53.4677 35.7064 53.0844 35.7064 52.6144C35.7064 52.1444 36.0669 51.7611 36.509 51.7611ZM39.7581 44.9351C39.7581 44.4651 40.1186 44.0818 40.5608 44.0818C41.0029 44.0818 41.3634 44.4651 41.3634 44.9351C41.3634 45.4051 41.0029 45.7884 40.5608 45.7884C40.1186 45.7884 39.7581 45.4051 39.7581 44.9351ZM34.8267 37.5688C34.8267 38.0388 34.4662 38.4221 34.0241 38.4221C33.5819 38.4221 33.2214 38.0388 33.2214 37.5688C33.2214 37.0988 33.5819 36.7156 34.0241 36.7156C34.4671 36.7156 34.8267 37.0988 34.8267 37.5688ZM45.2812 39.8848C45.7233 39.8848 46.0838 40.268 46.0838 40.7381C46.0838 41.2081 45.7233 41.5913 45.2812 41.5913C44.839 41.5913 44.4785 41.2081 44.4785 40.7381C44.4785 40.268 44.839 39.8848 45.2812 39.8848ZM35.4578 20.3126C35.0157 20.3126 34.6552 19.9293 34.6552 19.4593C34.6552 18.9893 35.0157 18.6061 35.4578 18.6061C35.9 18.6061 36.2605 18.9893 36.2605 19.4593C36.2605 19.9293 35.9 20.3126 35.4578 20.3126ZM45.6976 29.3093C45.6976 28.8393 46.0581 28.4561 46.5003 28.4561C46.9424 28.4561 47.3029 28.8393 47.3029 29.3093C47.3029 29.7793 46.9424 30.1626 46.5003 30.1626C46.0581 30.1626 45.6976 29.7793 45.6976 29.3093ZM31.1006 11.0389C30.6585 11.0389 30.298 10.6557 30.298 10.1857C30.298 9.71564 30.6585 9.3324 31.1006 9.3324C31.5428 9.3324 31.9033 9.71564 31.9033 10.1857C31.9033 10.6557 31.5428 11.0389 31.1006 11.0389ZM42.1082 22.5145C42.5504 22.5145 42.9109 22.8977 42.9109 23.3677C42.9109 23.8377 42.5504 24.221 42.1082 24.221C41.6661 24.221 41.3056 23.8377 41.3056 23.3677C41.3056 22.8977 41.6661 22.5145 42.1082 22.5145ZM51.0501 18.3623C51.0501 17.8923 51.4106 17.509 51.8527 17.509C52.2949 17.509 52.6554 17.8923 52.6554 18.3623C52.6554 18.8323 52.2949 19.2155 51.8527 19.2155C51.4106 19.2155 51.0501 18.8323 51.0501 18.3623ZM19.749 15.864C19.749 16.334 19.3885 16.7172 18.9464 16.7172C18.5043 16.7172 18.1438 16.334 18.1438 15.864C18.1438 15.3939 18.5043 15.0107 18.9464 15.0107C19.3885 15.0107 19.749 15.393 19.749 15.864ZM18.3731 22.5145C18.8152 22.5145 19.1757 22.8977 19.1757 23.3677C19.1757 23.8377 18.8152 24.221 18.3731 24.221C17.9309 24.221 17.5704 23.8377 17.5704 23.3677C17.5704 22.8977 17.9309 22.5145 18.3731 22.5145ZM58.2757 19.3452C58.7178 19.3452 59.0783 19.7285 59.0783 20.1985C59.0783 20.6685 58.7178 21.0517 58.2757 21.0517C57.8335 21.0517 57.473 20.6685 57.473 20.1985C57.473 19.7285 57.8335 19.3452 58.2757 19.3452ZM47.7322 12.9648C47.7322 13.4349 47.3717 13.8181 46.9296 13.8181C46.4874 13.8181 46.1269 13.4349 46.1269 12.9648C46.1269 12.4948 46.4874 12.1116 46.9296 12.1116C47.3717 12.1116 47.7322 12.4938 47.7322 12.9648ZM71.1179 47.0424C71.56 47.0424 71.9205 47.4256 71.9205 47.8957C71.9205 48.3657 71.56 48.7489 71.1179 48.7489C70.6757 48.7489 70.3152 48.3657 70.3152 47.8957C70.3152 47.4256 70.6757 47.0424 71.1179 47.0424ZM71.1179 34.0339C70.6757 34.0339 70.3152 33.6507 70.3152 33.1807C70.3152 32.7106 70.6757 32.3274 71.1179 32.3274C71.56 32.3274 71.9205 32.7106 71.9205 33.1807C71.9205 33.6507 71.56 34.0339 71.1179 34.0339ZM65.0408 21.0439C64.5986 21.0439 64.2381 20.6607 64.2381 20.1907C64.2381 19.7207 64.5986 19.3374 65.0408 19.3374C65.4829 19.3374 65.8434 19.7207 65.8434 20.1907C65.8434 20.6607 65.4829 21.0439 65.0408 21.0439ZM59.4223 35.915C59.8644 35.915 60.2249 36.2982 60.2249 36.7682C60.2249 37.2383 59.8644 37.6215 59.4223 37.6215C58.9802 37.6215 58.6197 37.2383 58.6197 36.7682C58.6197 36.2982 58.9802 35.915 59.4223 35.915ZM52.1967 26.0172C51.7546 26.0172 51.3941 25.634 51.3941 25.1639C51.3941 24.6939 51.7546 24.3107 52.1967 24.3107C52.6389 24.3107 52.9994 24.6939 52.9994 25.1639C52.9994 25.634 52.6389 26.0172 52.1967 26.0172ZM52.1472 37.9579C52.5893 37.9579 52.9498 38.3411 52.9498 38.8112C52.9498 39.2812 52.5893 39.6644 52.1472 39.6644C51.705 39.6644 51.3445 39.2812 51.3445 38.8112C51.3445 38.3411 51.705 37.9579 52.1472 37.9579ZM62.2889 46.4329C62.731 46.4329 63.0915 46.8162 63.0915 47.2862C63.0915 47.7562 62.731 48.1394 62.2889 48.1394C61.8467 48.1394 61.4862 47.7562 61.4862 47.2862C61.4862 46.8162 61.8467 46.4329 62.2889 46.4329Z" fill="black"/>
<path d="M104.187 21.5192H101.213V22.9854H103.153H104.101C107.635 22.9854 110.293 24.0698 112.074 26.2385C113.856 28.4072 114.747 31.2327 114.747 34.7149V35.2189C114.747 38.6399 113.856 41.435 112.074 43.6036C110.293 45.7722 107.635 46.8567 104.101 46.8567H102.722H101.773H101.299H101.213V57.624H102.722V48.3687H104.187C108.152 48.3687 111.162 47.1239 113.217 44.6345C115.271 42.1451 116.298 39.0218 116.298 35.2647V34.669C116.298 30.912 115.257 27.7812 113.173 25.2763C111.09 22.7714 108.095 21.5192 104.187 21.5192V21.5192ZM131.383 46.6734C133.222 45.5738 134.63 44.0235 135.607 42.0229C136.584 40.0222 137.072 37.7542 137.072 35.2189V34.5774C137.072 30.8203 136.016 27.7047 133.905 25.2305C131.793 22.7563 128.783 21.5192 124.875 21.5192H121.901V36.0436C122.39 36.0742 122.878 36.0894 123.367 36.0894V22.9854H124.789C128.323 22.9854 130.995 24.0774 132.805 26.2614C134.616 28.4454 135.521 31.2478 135.521 34.669V35.173C135.521 38.5636 134.616 41.3434 132.805 43.512C130.995 45.6805 128.323 46.765 124.789 46.765H123.367H121.901V48.2312C122.763 48.2618 123.338 48.277 123.625 48.277H124.875C126.858 48.277 128.596 47.9563 130.09 47.3149L135.435 57.624H137.159L131.383 46.6734ZM157.847 57.624C162.617 57.624 166.682 55.837 170.044 52.2632C171.711 50.5221 172.968 48.6436 173.815 46.6276C174.663 44.6116 175.087 42.3207 175.087 39.7549C175.087 34.6539 173.406 30.347 170.044 26.8341C166.682 23.352 162.53 21.5957 157.588 21.565C154.542 21.5956 151.683 22.4051 149.011 23.9934C146.397 25.6123 144.313 27.8575 142.762 30.7287L144.012 31.4618C145.42 28.8043 147.33 26.7425 149.744 25.2763C152.129 23.8101 154.743 23.0618 157.588 23.0312C162.186 23.0618 166.007 24.696 169.053 27.9338C172.098 31.1106 173.636 35.0507 173.664 39.7549C173.664 42.1069 173.277 44.2068 172.501 46.0549C171.725 47.9029 170.59 49.6362 169.096 51.2552C166.021 54.5237 162.272 56.1578 157.847 56.1578C155.088 56.1578 152.588 55.5316 150.347 54.2792L149.701 55.608C152.143 56.9519 154.859 57.624 157.847 57.624ZM185.172 56.0661C183.736 55.9439 182.557 55.2414 181.638 53.9585L180.69 54.9207C181.839 56.5091 183.29 57.3949 185.043 57.5781L185.172 56.0661ZM186.508 57.5781C188.146 57.3949 189.418 56.6007 190.323 55.1956C191.228 53.7905 191.68 51.8967 191.68 49.5141V21.5192H190.43V49.5141C190.402 53.5157 189.051 55.6996 186.379 56.0661L186.508 57.5781ZM208.791 25.872C208.791 26.0552 209.301 27.804 210.321 31.1181C211.341 34.4323 212.455 38.0596 213.661 42C214.868 45.9403 216.492 51.1485 218.532 57.624H220.385L208.963 21.5192H208.619L197.283 57.624H199.05L208.791 25.872ZM208.015 47.3607H206.464L209.05 57.624H210.601L208.015 47.3607ZM244.176 21.5192C242.194 28.6362 240.613 34.3254 239.435 38.5865C238.257 42.8476 237.18 46.7573 236.203 50.316C235.226 53.8747 234.737 55.6845 234.737 55.7454L235.255 57.624H235.599L245.943 21.5192H244.176V21.5192ZM234.048 45.4363L227.884 21.5192H225.988L233.186 49.6516L234.048 45.4363ZM256.029 37.0516L259.865 40.8545C261.072 42.0458 262.02 43.3211 262.709 44.6803C263.399 46.0395 263.744 47.4065 263.744 48.781V49.3767C263.772 50.3541 263.658 51.2247 263.399 51.9883H264.994C265.223 51.1636 265.324 50.3083 265.295 49.4225V48.781C265.295 47.1316 264.9 45.5584 264.11 44.0618C263.32 42.5651 262.221 41.0989 260.813 39.6632L257.106 35.952C255.928 34.7607 254.958 33.6457 254.197 32.6072C253.436 31.5688 253.055 30.2705 253.055 28.7127V28.4378C253.055 26.8189 253.479 25.513 254.326 24.5203C255.174 23.5277 256.359 23.0312 257.882 23.0312C258.974 23.0312 259.865 23.2068 260.554 23.5581C261.244 23.9094 261.948 24.4363 262.666 25.1389L263.657 23.9476C262.853 23.1534 262.027 22.5578 261.179 22.1607C260.332 21.7636 259.233 21.565 257.882 21.565C256.129 21.565 254.642 22.1683 253.421 23.3749C252.2 24.5814 251.589 26.2538 251.589 28.392V28.7585C251.589 30.4996 251.999 31.9887 252.818 33.2258C253.637 34.4629 254.707 35.7382 256.029 37.0516H256.029ZM264.39 53.7294H262.623C261.617 55.2872 260.008 56.0815 257.796 56.112C257.049 56.112 256.374 56.0203 255.77 55.837V57.4407C256.374 57.5629 257.049 57.624 257.796 57.624C259.347 57.624 260.684 57.288 261.804 56.616C262.925 55.9439 263.787 54.9818 264.39 53.7294H264.39ZM282.406 25.872C282.406 26.0552 282.916 27.804 283.936 31.1181C284.956 34.4323 286.07 38.0596 287.276 42C288.483 45.9403 290.107 51.1485 292.147 57.624H294L282.578 21.5192H282.234L270.898 57.624H272.665L282.406 25.872ZM281.63 47.3607H280.079L282.665 57.624H284.216L281.63 47.3607Z" fill="black"/>
</g>
<defs>
<clipPath id="clip0_42_58">
<rect width="294" height="79" fill="white"/>
</clipPath>
</defs>
</svg>
