<svg id="23bfb783-9338-4d48-b80e-d51acbd63b75" data-name="16" xmlns="http://www.w3.org/2000/svg" viewBox="0 0 105 105"><defs><style>.\31 52b1313-5ab9-40d3-bd3c-253a73869ae2,.cf2a8217-d4ef-41d1-84f6-e6532a065c0a{fill:#a2a2a2;}.cf2a8217-d4ef-41d1-84f6-e6532a065c0a{stroke:#a2a2a2;stroke-miterlimit:10;}.\31 52b1313-5ab9-40d3-bd3c-253a73869ae2{fill-rule:evenodd;}</style></defs><title>twitter</title><path class="cf2a8217-d4ef-41d1-84f6-e6532a065c0a" d="M52.85,3.92a49.52,49.52,0,1,1-35,14.5,49.45,49.45,0,0,1,35-14.5ZM85.12,21.16A45.64,45.64,0,1,0,98.5,53.46a45.48,45.48,0,0,0-13.38-32.3Z"/><path class="152b1313-5ab9-40d3-bd3c-253a73869ae2" d="M78.13,38a22.1,22.1,0,0,1-5.95,1.62A10.23,10.23,0,0,0,76.76,34a21.13,21.13,0,0,1-6.61,2.49,10.42,10.42,0,0,0-18,7,10.67,10.67,0,0,0,.3,2.33A29.44,29.44,0,0,1,31.1,35.09a10.08,10.08,0,0,0,3.18,13.63,10,10,0,0,1-4.69-1.26v.14a9.66,9.66,0,0,0,.71,3.67,10.34,10.34,0,0,0,7.62,6.31,10.19,10.19,0,0,1-2.74.38,9.26,9.26,0,0,1-1.95-.22,10.46,10.46,0,0,0,9.68,7.13,21,21,0,0,1-12.86,4.36c-.85,0-1.64-.06-2.49-.14a29.94,29.94,0,0,0,15.9,4.58c16.2,0,26.21-11.21,28.82-22.87A28.06,28.06,0,0,0,73,44.63V43.31A21.45,21.45,0,0,0,78.13,38Z"/></svg>