<svg id="4ab7c487-264f-4244-adcd-0746f936e9bc" data-name="16" xmlns="http://www.w3.org/2000/svg" viewBox="0 0 105 105"><defs><style>.\32 b330a61-9f9c-46fb-8501-acc333964de1,.ef94aebf-e109-4626-809c-75976a00c148{fill:#a2a2a2;}.\32 b330a61-9f9c-46fb-8501-acc333964de1{stroke:#a2a2a2;stroke-miterlimit:10;}.ef94aebf-e109-4626-809c-75976a00c148{fill-rule:evenodd;}</style></defs><title>youtube</title><path class="2b330a61-9f9c-46fb-8501-acc333964de1" d="M52.91,3.92a49.52,49.52,0,1,1-35,14.5,49.45,49.45,0,0,1,35-14.5ZM85.19,21.16a45.65,45.65,0,1,0,13.38,32.3,45.48,45.48,0,0,0-13.38-32.3Z"/><path class="ef94aebf-e109-4626-809c-75976a00c148" d="M77.7,42.9s-.52-3.65-2-5.24a7.24,7.24,0,0,0-5-2.25c-7.07-.52-17.68-.52-17.68-.52h-.06s-10.58,0-17.66.52a7.21,7.21,0,0,0-5.07,2.25c-1.51,1.59-2,5.24-2,5.24a80.53,80.53,0,0,0-.52,8.5v4a79.19,79.19,0,0,0,.52,8.5s.52,3.65,2,5.26c1.92,2.11,4.44,2,5.59,2.25,4,.41,17.19.55,17.19.55s10.61-.05,17.68-.55a7.12,7.12,0,0,0,5-2.25c1.51-1.62,2-5.26,2-5.26a83.81,83.81,0,0,0,.49-8.5v-4c0-4.22-.49-8.5-.49-8.5Zm-16.34,10L47.68,60.26V45.45l6.2,3.37Z"/></svg>